<svg width="79" height="23" viewBox="0 0 79 23" fill="none" xmlns="http://www.w3.org/2000/svg">
<path d="M14.1833 21.6187H22.7433V21.9936H11.809V21.6187C13.621 21.6187 14.3708 19.588 13.746 17.9947L12.4651 14.6832H5.8108L4.99854 16.5889C4.24876 18.4009 4.74861 21.6187 7.74773 21.6187V21.9936H0V21.6187C1.65577 21.6187 3.12409 19.1819 3.81138 17.7136L11.4654 0.218687H11.9028L18.026 14.8394C18.5258 16.0266 18.2759 17.4012 17.3699 18.3071L14.1833 21.6187ZM6.12321 14.0271H12.1839L9.27853 6.71678L6.15445 13.9647L6.12321 14.0271Z" fill="white"/>
<path d="M55.0695 0.624818H62.13V0.999707H61.6926C60.443 0.999707 58.8497 3.78015 58.8497 6.24817V22.3997H58.4435L58.2873 22.1498L55.8193 18.682L48.9463 8.96612L46.1347 4.9673L45.4161 5.68584C45.01 6.12321 44.7913 6.81051 44.7913 7.43532V16.4014C44.7913 18.8695 46.1971 21.6499 47.5092 21.6499H48.1028V21.9936H40.9174V21.6499H41.2298C42.4795 21.6499 44.0728 18.8695 44.0728 16.4014V7.56029C44.0728 6.93547 44.229 6.27941 44.7913 5.62335L46.2909 3.93635L48.9463 0.999707H40.9174V0.624818H49.3212L49.8523 1.3746L57.725 12.6213C57.9125 12.8712 58.1311 12.965 58.1311 12.5901V6.24817C58.1311 3.78015 56.7253 0.999707 55.4132 0.999707H55.0695V0.624818Z" fill="white"/>
<path d="M78.6252 13.5273H79V22.2122H78.6564C78.344 21.8686 77.6254 21.2438 76.4695 21.2438C74.9075 21.2438 74.2827 22.2122 71.9084 22.2122C67.4722 22.2122 62.13 18.4946 62.13 10.9968C62.13 3.49898 68.0345 0.0312404 71.8459 0.0312404C74.1265 0.0312404 75.0949 0.71854 76.2821 0.71854C77.2193 0.71854 77.8129 0.562335 78.344 0H78.5627L78.7501 7.59153H78.4065C77.4068 4.87357 75.3761 0.687299 71.9708 0.687299C68.7843 0.687299 67.191 4.49868 67.191 10.9968C67.191 17.4949 68.5656 21.5249 72.0958 21.5249C75.0637 21.5249 77.5317 17.6823 78.6252 13.5273Z" fill="white"/>
<path fill-rule="evenodd" clip-rule="evenodd" d="M41.2405 10.3095H31.7207V10.6844H38.1789L34.8361 14.402C33.9301 15.433 33.3366 16.4327 33.3366 18.0572V19.1506C33.3366 21.0876 32.2431 21.6499 30.8061 21.6499C27.3071 21.6499 26.2761 17.7136 26.2761 11.2155V10.6844V10.3095C26.4011 4.37372 27.8694 0.999707 30.931 0.999707C34.3675 0.999707 36.5856 4.87357 37.6166 7.59153H37.9602L37.5541 0H37.3354C36.8355 0.624818 36.2732 0.937226 35.211 0.937226C34.7154 0.937226 34.2689 0.812009 33.7485 0.666119C33.0225 0.462531 32.1528 0.218687 30.8061 0.218687C26.9947 0.218687 21.2151 3.71766 21.2151 11.2155C21.2151 18.7133 26.2136 22.4309 30.6186 22.4309C32.0023 22.4309 32.9208 22.1105 33.7012 21.8383C34.2776 21.6372 34.7786 21.4625 35.336 21.4625C36.6169 21.4625 37.7103 22.1185 38.0227 22.4309H38.2101V12.1214C38.2101 11.153 38.585 10.6844 39.4598 10.6844H41.2405V10.3095Z" fill="white"/>
</svg>
